<svg width="93" height="92" viewBox="0 0 93 92" fill="none" xmlns="http://www.w3.org/2000/svg">
<path fill-rule="evenodd" clip-rule="evenodd" d="M79.109 14.643C79.109 14.223 79.449 13.882 79.869 13.882H87.706C87.9078 13.882 88.1014 13.9622 88.2441 14.1049C88.3868 14.2476 88.467 14.4412 88.467 14.643C88.467 14.8448 88.3868 15.0384 88.2441 15.1811C88.1014 15.3238 87.9078 15.404 87.706 15.404H79.869C79.6674 15.404 79.4741 15.3239 79.3316 15.1814C79.1891 15.0389 79.109 14.8456 79.109 14.644V14.643Z" fill="#A3784A"/>
<path d="M87.707 18.57C88.2221 18.5695 88.7321 18.4675 89.2078 18.2698C89.6835 18.0722 90.1156 17.7828 90.4794 17.4181C90.8433 17.0534 91.1317 16.6206 91.3283 16.1445C91.5248 15.6683 91.6257 15.1581 91.625 14.643C91.6258 13.6029 91.2135 12.6051 90.4788 11.8688C89.7441 11.1326 88.7471 10.7183 87.707 10.717C86.6667 10.7181 85.6695 11.1323 84.9345 11.8685C84.1996 12.6047 83.7872 13.6027 83.788 14.643C83.7875 15.1582 83.8884 15.6684 84.0851 16.1446C84.2817 16.6207 84.5703 17.0535 84.9342 17.4181C85.2981 17.7828 85.7303 18.0722 86.206 18.2698C86.6818 18.4675 87.1918 18.5695 87.707 18.57Z" fill="#A3784A"/>
<path fill-rule="evenodd" clip-rule="evenodd" d="M4.785 14.643C4.785 14.223 5.125 13.882 5.544 13.882H27.055C27.2568 13.882 27.4504 13.9622 27.5931 14.1049C27.7358 14.2476 27.816 14.4412 27.816 14.643C27.816 14.8448 27.7358 15.0384 27.5931 15.1811C27.4504 15.3238 27.2568 15.404 27.055 15.404H5.545C5.34344 15.404 5.15013 15.3239 5.0076 15.1814C4.86508 15.0389 4.785 14.8456 4.785 14.644V14.643Z" fill="#A3784A"/>
<path d="M5.544 18.57C6.58427 18.5687 7.58143 18.1542 8.31616 17.4178C9.0509 16.6814 9.46306 15.6833 9.462 14.643C9.4628 13.6029 9.05052 12.6051 8.31581 11.8688C7.5811 11.1326 6.5841 10.7183 5.544 10.717C4.50373 10.7181 3.50647 11.1323 2.77155 11.8685C2.03662 12.6047 1.62421 13.6027 1.625 14.643C1.62448 15.1582 1.72543 15.6684 1.92209 16.1446C2.11876 16.6207 2.40728 17.0535 2.77119 17.4181C3.13511 17.7828 3.56728 18.0722 4.04304 18.2698C4.5188 18.4675 5.02883 18.5695 5.544 18.57Z" fill="#A3784A"/>
<path fill-rule="evenodd" clip-rule="evenodd" d="M20.425 8.761C20.425 8.341 20.765 8 21.185 8H68.145C68.347 8 68.5406 8.08023 68.6835 8.22304C68.8263 8.36585 68.9065 8.55954 68.9065 8.7615C68.9065 8.96346 68.8263 9.15715 68.6835 9.29996C68.5406 9.44277 68.347 9.523 68.145 9.523H21.185C21.085 9.523 20.986 9.50328 20.8937 9.46496C20.8014 9.42664 20.7175 9.37048 20.6469 9.29969C20.5763 9.22891 20.5203 9.14489 20.4823 9.05245C20.4442 8.96002 20.4247 8.86097 20.425 8.761ZM15.315 19.764C15.734 19.764 16.075 20.104 16.075 20.525V53.084H21.185C21.3868 53.084 21.5804 53.1642 21.7231 53.3069C21.8658 53.4496 21.946 53.6432 21.946 53.845C21.946 54.0468 21.8658 54.2404 21.7231 54.3831C21.5804 54.5258 21.3868 54.606 21.185 54.606H15.315C15.1134 54.606 14.9201 54.5259 14.7776 54.3834C14.6351 54.2409 14.555 54.0476 14.555 53.846V20.524C14.555 20.104 14.895 19.764 15.315 19.764Z" fill="#A3784A"/>
<path fill-rule="evenodd" clip-rule="evenodd" d="M16.496 9.946C17.1111 9.32943 17.8418 8.84025 18.6462 8.50649C19.4507 8.17272 20.3131 8.00092 21.184 8.00092C22.0549 8.00092 22.9173 8.17272 23.7217 8.50649C24.5262 8.84025 25.2569 9.32943 25.872 9.946C27.1157 11.1928 27.8141 12.882 27.814 14.643V82.478H73.254V14.643C73.254 13.285 72.715 11.983 71.757 11.023C71.283 10.5477 70.7198 10.1706 70.0999 9.91319C69.4799 9.6558 68.8153 9.5232 68.144 9.523C67.942 9.523 67.7483 9.44277 67.6055 9.29996C67.4627 9.15715 67.3825 8.96346 67.3825 8.7615C67.3825 8.55954 67.4627 8.36585 67.6055 8.22304C67.7483 8.08023 67.942 8 68.144 8C69.902 8 71.588 8.7 72.831 9.946C74.0747 11.1928 74.7731 12.882 74.773 14.643V83.24C74.7731 83.3399 74.7536 83.4388 74.7154 83.5311C74.6773 83.6235 74.6213 83.7074 74.5508 83.778C74.4802 83.8487 74.3963 83.9048 74.3041 83.9431C74.2118 83.9813 74.1129 84.001 74.013 84.001H27.055C26.9551 84.001 26.8562 83.9813 26.7639 83.9431C26.6716 83.9048 26.5878 83.8487 26.5172 83.778C26.4467 83.7074 26.3907 83.6235 26.3526 83.5311C26.3144 83.4388 26.2949 83.3399 26.295 83.24V14.643C26.295 13.285 25.757 11.983 24.799 11.023C24.3248 10.5478 23.7616 10.1709 23.1415 9.91366C22.5215 9.65645 21.8568 9.52406 21.1855 9.52406C20.5142 9.52406 19.8495 9.65645 19.2295 9.91366C18.6094 10.1709 18.0462 10.5478 17.572 11.023C16.6134 11.9839 16.0751 13.2857 16.075 14.643C16.075 14.8446 15.9949 15.0379 15.8524 15.1804C15.7099 15.3229 15.5166 15.403 15.315 15.403C15.1134 15.403 14.9201 15.3229 14.7776 15.1804C14.6351 15.0379 14.555 14.8446 14.555 14.643C14.5549 12.882 15.2523 11.1928 16.496 9.946Z" fill="#A3784A"/>
<path fill-rule="evenodd" clip-rule="evenodd" d="M14.555 43.663C14.5605 43.5632 14.5856 43.4655 14.6289 43.3755C14.6722 43.2854 14.7328 43.2048 14.8073 43.1382C14.8818 43.0716 14.9687 43.0203 15.063 42.9873C15.1573 42.9544 15.2572 42.9403 15.357 42.946L21.227 43.276C21.4286 43.2873 21.6174 43.3781 21.752 43.5286C21.8865 43.6791 21.9558 43.8769 21.9445 44.0785C21.9332 44.2801 21.8424 44.4689 21.6919 44.6034C21.5414 44.738 21.3436 44.8073 21.142 44.796L15.272 44.466C15.1722 44.4604 15.0745 44.4351 14.9845 44.3917C14.8945 44.3483 14.814 44.2876 14.7475 44.213C14.681 44.1384 14.6298 44.0514 14.597 43.9571C14.5641 43.8627 14.5492 43.7627 14.555 43.663ZM26.297 73.446C26.297 73.026 26.637 72.685 27.057 72.685H74.015C74.2168 72.685 74.4104 72.7652 74.5531 72.9079C74.6958 73.0506 74.776 73.2442 74.776 73.446C74.776 73.6478 74.6958 73.8414 74.5531 73.9841C74.4104 74.1268 74.2168 74.207 74.015 74.207H27.055C26.8534 74.207 26.6601 74.1269 26.5176 73.9844C26.3751 73.8419 26.295 73.6486 26.295 73.447L26.297 73.446Z" fill="#A3784A"/>
</svg>
