<svg width="92" height="92" viewBox="0 0 92 92" fill="none" xmlns="http://www.w3.org/2000/svg">
<path d="M33.5 44C34 45.1667 34.5 46.5 35.5 47.5M35.5 47.5H41M35.5 47.5C28.0103 60.4082 26.3839 69.0176 27.5 86.5H64.5C65.9943 69.8356 64.163 61.2254 56 47.5M56 47.5H45M56 47.5C57 46.5 57.5 45.5 58 44" stroke="#A3784A" stroke-width="1.5" stroke-linecap="round"/>
<path d="M27 11.5C18.5 27.5 12 45.5 9 63L22.5 68.5C26 61.1667 33 43 33 27M27 11.5C27 11.5 33.0234 8.65213 36 7M27 11.5L33 18.5" stroke="#A3784A" stroke-width="1.5" stroke-linecap="round"/>
<path d="M64.9739 11.5C73.4739 27.5 79.9739 45.5 82.9739 63L69.4739 68.5C65.9739 61.1667 58.9739 43 58.9739 27M64.9739 11.5C64.9739 11.5 58.9505 8.65213 55.9739 7M64.9739 11.5L58.9739 18.5" stroke="#A3784A" stroke-width="1.5" stroke-linecap="round"/>
<path d="M45 86.5V32.8886L55.3545 7.24897C55.7681 6.22476 55.2731 5.05918 54.2489 4.64556C53.2247 4.23194 52.0591 4.72691 51.6455 5.75112L41 32.1114V86.5" stroke="#A3784A" stroke-width="1.5" stroke-linecap="round"/>
<path d="M45.6094 20L39.855 5.75112C39.4414 4.72691 38.2758 4.23194 37.2516 4.64556C36.2274 5.05918 35.7324 6.22476 36.1461 7.24897L43.5167 25.5" stroke="#A3784A" stroke-width="1.5" stroke-linecap="round"/>
<path d="M49 47.5L49.5857 47.0315C49.4433 46.8536 49.2278 46.75 49 46.75C48.7722 46.75 48.5567 46.8536 48.4143 47.0315L49 47.5ZM50.25 52C50.25 52.6904 49.6904 53.25 49 53.25V54.75C50.5188 54.75 51.75 53.5188 51.75 52H50.25ZM49 53.25C48.3096 53.25 47.75 52.6904 47.75 52H46.25C46.25 53.5188 47.4812 54.75 49 54.75V53.25ZM47.75 52C47.75 51.2072 48.1625 50.2273 48.6512 49.3721C48.8865 48.9603 49.1228 48.6058 49.3002 48.3544C49.3887 48.2291 49.4619 48.1303 49.5121 48.0639C49.5372 48.0307 49.5566 48.0057 49.5691 47.9896C49.5754 47.9815 49.58 47.9756 49.5828 47.9721C49.5842 47.9703 49.5852 47.9691 49.5856 47.9685C49.5859 47.9682 49.586 47.9681 49.586 47.9681C49.586 47.9681 49.586 47.9681 49.5859 47.9682C49.5859 47.9682 49.5858 47.9683 49.5858 47.9683C49.5857 47.9684 49.5857 47.9685 49 47.5C48.4143 47.0315 48.4143 47.0316 48.4141 47.0317C48.4141 47.0318 48.414 47.0319 48.4139 47.032C48.4137 47.0323 48.4135 47.0325 48.4133 47.0328C48.4128 47.0334 48.4122 47.0342 48.4115 47.0351C48.41 47.0369 48.4081 47.0394 48.4057 47.0424C48.4009 47.0484 48.3943 47.0569 48.3859 47.0676C48.3692 47.089 48.3456 47.1197 48.316 47.1587C48.2569 47.2369 48.1738 47.3491 48.0748 47.4894C47.8772 47.7692 47.6135 48.1647 47.3488 48.6279C46.8375 49.5227 46.25 50.7928 46.25 52H47.75ZM49 47.5C48.4143 47.9685 48.4143 47.9684 48.4142 47.9683C48.4142 47.9683 48.4141 47.9682 48.4141 47.9682C48.414 47.9681 48.414 47.9681 48.414 47.9681C48.414 47.9681 48.4141 47.9682 48.4144 47.9685C48.4148 47.9691 48.4158 47.9703 48.4172 47.9721C48.42 47.9756 48.4246 47.9815 48.4309 47.9896C48.4434 48.0057 48.4628 48.0307 48.4879 48.0639C48.5381 48.1303 48.6113 48.2291 48.6998 48.3544C48.8772 48.6058 49.1135 48.9603 49.3488 49.3721C49.8375 50.2273 50.25 51.2072 50.25 52H51.75C51.75 50.7928 51.1625 49.5227 50.6512 48.6279C50.3865 48.1647 50.1228 47.7692 49.9252 47.4894C49.8262 47.3491 49.7431 47.2369 49.684 47.1587C49.6544 47.1197 49.6308 47.089 49.6141 47.0676C49.6057 47.0569 49.5991 47.0484 49.5943 47.0424C49.5919 47.0394 49.59 47.0369 49.5885 47.0351C49.5878 47.0342 49.5872 47.0334 49.5867 47.0328C49.5865 47.0325 49.5863 47.0323 49.5861 47.032C49.586 47.0319 49.5859 47.0318 49.5859 47.0317C49.5857 47.0316 49.5857 47.0315 49 47.5Z" fill="#A3784A"/>
</svg>
