<svg width="84" height="94" viewBox="0 0 84 94" fill="none" xmlns="http://www.w3.org/2000/svg">
<path fill-rule="evenodd" clip-rule="evenodd" d="M0.89224 41.9192C0.88763 40.1086 1.51796 38.3694 2.64552 37.0819C3.77308 35.7943 5.3062 35.0628 6.90992 35.0474H25.0147C26.6033 35.0475 28.128 34.3404 29.2578 33.0794C30.3876 31.8185 31.0314 30.1054 31.0496 28.3119V7.79394C31.0541 5.99029 31.692 4.26228 32.8233 2.98874C33.9545 1.71519 35.4869 1.00002 37.0845 1.00003H76.277C77.0687 0.997465 77.853 1.17131 78.5851 1.51159C79.3172 1.85187 79.9826 2.3519 80.5433 2.98303C81.1039 3.61415 81.5487 4.36397 81.8522 5.18952C82.1557 6.01506 82.3119 6.90011 82.3119 7.79394V86.1866C82.3119 87.9936 81.6761 89.7267 80.5443 91.0044C79.4125 92.2822 77.8775 93 76.277 93H6.90992C5.30936 93 3.77435 92.2822 2.64259 91.0044C1.51082 89.7267 0.875 87.9936 0.875 86.1866L0.89224 41.9192Z" stroke="#A3784A" stroke-width="1.5" stroke-linecap="round" stroke-linejoin="round"/>
<path d="M2.66846 37.1109L32.8257 3.06348" stroke="#A3784A" stroke-width="1.5" stroke-linecap="round" stroke-linejoin="round"/>
<path d="M0.89209 47.1752L5.40967 42.0555L11.4446 35.2421L11.5653 35.1058" stroke="#A3784A" stroke-linecap="round" stroke-linejoin="round"/>
<path d="M41.723 1.07788L41.6023 1.21415L35.5674 8.00805L31.0498 13.1278" stroke="#A3784A" stroke-linecap="round" stroke-linejoin="round"/>
<path d="M65.845 1.07788L0.89209 74.4092" stroke="#A3784A" stroke-linecap="round" stroke-linejoin="round"/>
<path d="M82.3123 9.72107L8.54834 92.9999" stroke="#A3784A" stroke-linecap="round" stroke-linejoin="round"/>
<path d="M82.3122 36.9746L32.688 93" stroke="#A3784A" stroke-linecap="round" stroke-linejoin="round"/>
<path d="M82.3119 64.1891L56.8101 92.9999" stroke="#A3784A" stroke-linecap="round" stroke-linejoin="round"/>
<path d="M82.3115 47.1752L71.6383 35.1058L52.1542 13.1278L41.481 1.07788" stroke="#A3784A" stroke-linecap="round" stroke-linejoin="round"/>
<path d="M66.1553 1.13623L76.7939 13.1667L82.3116 19.3766" stroke="#A3784A" stroke-linecap="round" stroke-linejoin="round"/>
<path d="M31.0498 16.5344L35.5674 21.6347L41.6023 28.4481L47.6372 35.242L53.6721 42.0554L59.6898 48.8687L65.7247 55.6821L71.7768 62.4955L82.3121 74.4091" stroke="#A3784A" stroke-linecap="round" stroke-linejoin="round"/>
<path d="M23.394 35.1058L23.5147 35.2421L29.5497 42.0555L35.5673 48.8688L41.6022 55.6822L47.6371 62.4956L53.6721 69.2895L59.707 76.1223L74.6563 93" stroke="#A3784A" stroke-linecap="round" stroke-linejoin="round"/>
<path d="M1.92676 38.1232L5.40976 42.0555L11.4447 48.8688L17.4796 55.6822L23.5145 62.4956L29.5494 69.2895L35.5671 76.1028L41.602 82.9162L50.5336 93" stroke="#A3784A" stroke-linecap="round" stroke-linejoin="round"/>
<path d="M26.4111 92.9999L0.89209 64.1891" stroke="#A3784A" stroke-linecap="round" stroke-linejoin="round"/>
</svg>
