<svg width="93" height="92" viewBox="0 0 93 92" fill="none" xmlns="http://www.w3.org/2000/svg">
<path d="M11.721 81.996C10.081 81.996 8.87102 81.709 7.81102 80.928C5.42102 79.14 6.04102 76.155 6.83102 72.38C7.36102 69.86 7.95102 66.994 7.95102 63.634C7.95102 60.274 7.35102 57.408 6.83102 54.888C6.04102 51.103 5.42102 48.118 7.81102 46.34C9.80102 44.857 12.301 45.164 17.271 45.766C21.751 46.31 28.521 47.14 38.981 47.14C49.441 47.14 56.211 46.31 60.691 45.767C65.661 45.154 68.161 44.857 70.151 46.34C72.541 48.128 71.921 51.113 71.131 54.888C70.601 57.408 70.011 60.274 70.011 63.634C70.011 66.994 70.611 69.86 71.131 72.38C71.921 76.165 72.541 79.15 70.151 80.928C68.161 82.411 65.661 82.104 60.691 81.501C56.211 80.958 49.441 80.128 38.981 80.128C28.521 80.128 21.751 80.958 17.271 81.501C14.951 81.778 13.161 81.996 11.721 81.996ZM11.751 46.745C10.421 46.745 9.46102 46.952 8.71102 47.515C7.15102 48.682 7.49102 50.737 8.29102 54.582C8.80102 57.042 9.44102 60.116 9.44102 63.624C9.44102 67.132 8.80102 70.206 8.29102 72.666C7.49102 76.511 7.14102 78.566 8.71102 79.733C10.221 80.849 12.511 80.573 17.081 80.019C21.601 79.466 28.421 78.635 38.971 78.635C49.521 78.635 56.351 79.465 60.861 80.019C65.431 80.582 67.731 80.859 69.231 79.732C70.791 78.566 70.451 76.511 69.651 72.666C69.141 70.206 68.501 67.132 68.501 63.624C68.501 60.116 69.141 57.042 69.651 54.582C70.451 50.737 70.801 48.682 69.231 47.516C67.731 46.399 65.431 46.676 60.861 47.229C56.341 47.782 49.521 48.613 38.971 48.613C28.421 48.613 21.591 47.783 17.081 47.229C14.801 46.952 13.091 46.745 11.751 46.745ZM81.481 60.847C80.061 60.847 78.321 60.442 76.061 59.908L74.951 59.651L75.291 58.208L76.401 58.465C80.861 59.503 82.471 59.799 83.751 58.465C85.311 56.855 84.501 53.831 83.381 49.64C82.361 45.826 81.091 41.072 81.091 35.42C81.091 29.777 82.361 25.023 83.381 21.199C84.501 17.009 85.311 13.984 83.761 12.384C82.471 11.04 80.861 11.326 76.381 12.384C71.721 13.471 64.691 15.121 53.261 15.121C41.841 15.121 34.801 13.471 30.141 12.384C25.651 11.336 24.041 11.04 22.761 12.384C21.201 13.994 22.011 17.018 23.131 21.199C24.151 25.013 25.421 29.767 25.421 35.419C25.421 37.495 25.251 39.56 24.911 41.754L23.431 41.527C23.761 39.412 23.931 37.416 23.931 35.419C23.931 29.964 22.691 25.319 21.691 21.584C20.451 16.93 19.551 13.57 21.681 11.366C23.621 9.34001 26.061 9.90301 30.491 10.941C35.081 12.018 42.011 13.639 53.261 13.639C64.511 13.639 71.441 12.018 76.031 10.941C80.461 9.90301 82.901 9.33001 84.841 11.366C86.971 13.57 86.071 16.93 84.831 21.584C83.831 25.32 82.591 29.964 82.591 35.419C82.591 40.875 83.831 45.519 84.831 49.255C86.081 53.91 86.971 57.27 84.841 59.473C83.901 60.481 82.831 60.847 81.481 60.847Z" fill="#A3784A"/>
</svg>
