<svg width="93" height="92" viewBox="0 0 93 92" fill="none" xmlns="http://www.w3.org/2000/svg">
<path d="M82.055 86H10.695C9.55099 86 8.4537 85.5462 7.64383 84.7382C6.83396 83.9302 6.37765 82.834 6.375 81.69V40.043L86.375 27.362V81.688C86.3729 82.8324 85.9168 83.9291 85.1069 84.7375C84.2969 85.546 83.1993 86 82.055 86ZM7.875 41.314V81.68C7.875 83.23 9.135 84.49 10.695 84.49H82.055C83.605 84.49 84.875 83.23 84.875 81.68V29.103L7.875 41.314ZM7.875 35.234H6.375V15.65C6.37765 14.506 6.83396 13.4098 7.64383 12.6018C8.4537 11.7938 9.55099 11.34 10.695 11.34H15.295V10.31C15.2976 9.166 15.754 8.06976 16.5638 7.26176C17.3737 6.45377 18.471 6 19.615 6H39.235C40.379 6 41.4763 6.45377 42.2862 7.26176C43.096 8.06976 43.5524 9.166 43.555 10.31V11.34H49.195V10.31C49.1976 9.166 49.654 8.06976 50.4638 7.26176C51.2737 6.45377 52.371 6 53.515 6H73.135C74.279 6 75.3763 6.45377 76.1862 7.26176C76.996 8.06976 77.4524 9.166 77.455 10.31V11.34H82.055C84.435 11.34 86.375 13.28 86.375 15.651V22.782H84.875V15.652C84.875 14.101 83.615 12.841 82.055 12.841H77.455V19.221C77.4526 20.3652 76.9964 21.4617 76.1865 22.2699C75.3766 23.0781 74.2792 23.532 73.135 23.532H53.515C51.135 23.532 49.195 21.592 49.195 19.222V12.84H43.555V19.22C43.5526 20.3642 43.0964 21.4607 42.2865 22.2689C41.4766 23.0771 40.3792 23.531 39.235 23.531H19.615C17.235 23.531 15.295 21.591 15.295 19.221V12.84H10.695C9.145 12.84 7.875 14.1 7.875 15.65V35.234ZM53.515 7.49C51.965 7.49 50.695 8.75 50.695 10.3V19.212C50.695 20.762 51.955 22.022 53.515 22.022H73.135C74.685 22.022 75.955 20.762 75.955 19.212V10.3C75.955 8.75 74.695 7.49 73.135 7.49H53.515ZM19.615 7.49C18.065 7.49 16.795 8.75 16.795 10.3V19.212C16.795 20.762 18.055 22.022 19.615 22.022H39.235C40.785 22.022 42.055 20.762 42.055 19.212V10.3C42.055 8.75 40.795 7.49 39.235 7.49H19.615Z" fill="#A3784A"/>
<path d="M23.435 57.376C21.105 57.376 18.825 56.346 17.275 54.436L6.51501 41.094L7.68501 40.154L18.445 53.496C19.3492 54.614 20.6025 55.3962 22.0041 55.7172C23.4057 56.0381 24.8745 55.8792 26.175 55.266L85.395 29.313L85.995 30.683L26.795 56.626C25.715 57.126 24.565 57.376 23.435 57.376Z" fill="#A3784A"/>
</svg>
