<svg width="24" height="24" viewBox="0 0 24 24" fill="none" xmlns="http://www.w3.org/2000/svg">
<path d="M6.52841 6.52844C6.52842 6.52843 6.52843 6.52842 6.52844 6.52841C6.86514 6.19174 7.19553 5.9891 7.59583 5.83356L7.59587 5.83354C7.9845 5.68249 8.43905 5.57342 9.13669 5.54161L9.1367 5.5416L6.52841 6.52844ZM6.52841 6.52844C6.19174 6.86514 5.9891 7.19553 5.83356 7.59583L5.83354 7.59587C5.68249 7.9845 5.57342 8.43905 5.54161 9.13669L5.5416 9.1367C5.50806 9.87191 5.5 10.1014 5.5 12C5.5 13.8986 5.50806 14.1281 5.5416 14.8633L5.54161 14.8633C5.57342 15.561 5.68249 16.0155 5.83354 16.4041L5.83356 16.4042C5.9891 16.8045 6.19174 17.1349 6.52841 17.4716M6.52841 6.52844V17.4716M6.52841 17.4716C6.52842 17.4716 6.52843 17.4716 6.52844 17.4716M6.52841 17.4716L6.52844 17.4716M6.52844 17.4716C6.86514 17.8083 7.19554 18.0109 7.59585 18.1665C7.9845 18.3175 8.43905 18.4266 9.13669 18.4584L9.1367 18.4584C9.87191 18.4919 10.1014 18.5 12 18.5C13.8986 18.5 14.1281 18.4919 14.8633 18.4584L14.8633 18.4584C15.5609 18.4266 16.0155 18.3175 16.4041 18.1665C16.8045 18.0109 17.1349 17.8083 17.4716 17.4716C17.4716 17.4716 17.4716 17.4716 17.4716 17.4716M6.52844 17.4716L18.6325 16.5853C18.4536 17.0456 18.2143 17.436 17.8251 17.8251L17.4716 17.4716M17.4716 17.4716C17.8083 17.1349 18.0109 16.8045 18.1665 16.4041M17.4716 17.4716L18.1665 16.4041M18.1665 16.4041C18.3175 16.0155 18.4266 15.5609 18.4584 14.8633L18.4584 14.8633C18.4919 14.1281 18.5 13.8986 18.5 12C18.5 10.1014 18.4919 9.87191 18.4584 9.1367L18.4584 9.13669C18.4266 8.43905 18.3175 7.9845 18.1665 7.59585M18.1665 16.4041L18.9579 14.8861C18.9919 14.1395 19 13.9011 19 12C19 10.0989 18.9919 9.86053 18.9579 9.11391C18.9239 8.36884 18.8055 7.85999 18.6325 7.41473M18.1665 7.59585L18.6325 7.41473M18.1665 7.59585C18.1665 7.59585 18.1665 7.59584 18.1665 7.59584L18.6325 7.41473M18.1665 7.59585C18.0109 7.19554 17.8083 6.86514 17.4716 6.52844M18.6325 7.41473C18.4536 6.95442 18.2143 6.56405 17.8251 6.17487M17.8251 6.17487L17.4716 6.52844M17.8251 6.17487L17.4716 6.52841M17.8251 6.17487C17.436 5.78572 17.0456 5.54637 16.5853 5.3675L17.4716 6.52841M17.4716 6.52844C17.4716 6.52843 17.4716 6.52842 17.4716 6.52841M17.4716 6.52844C17.4716 6.52843 17.4716 6.52842 17.4716 6.52841" stroke="#A47846"/>
<circle cx="12" cy="12" r="3" stroke="#A47846"/>
<circle cx="15.75" cy="8.25" r="0.375" stroke="#A47846" stroke-width="0.75"/>
</svg>
