<svg width="166" height="36" viewBox="0 0 166 36" fill="none" xmlns="http://www.w3.org/2000/svg">
<g clip-path="url(#clip0_0_180)">
<path d="M23.92 5.908L14.164 31H10.456L1.816 5.908H2.464L10.816 30.208L20.248 5.908H23.92Z" fill="#A3784A"/>
<path d="M42.92 31H42.272L38.744 20.74H28.484L24.488 31H20.816L30.572 5.908H34.28L42.92 31ZM33.92 6.7L28.7 20.128H38.528L33.92 6.7Z" fill="#A3784A"/>
<path d="M61.8 5.908V31H65.22V18.256H79.044V31H82.464V5.908H79.044V17.68H65.22V5.908H61.8ZM85.5178 18.472C85.5178 27.652 92.2858 31.54 99.7018 31.576C107.154 31.54 113.922 27.652 113.922 18.472C113.922 9.472 107.154 5.368 99.7018 5.368C92.2858 5.368 85.5178 9.472 85.5178 18.472ZM99.7018 5.944C105.102 5.944 110.322 9.112 110.322 18.472C110.322 27.868 105.102 31.036 99.7018 31.036C94.3378 31.036 89.1178 27.868 89.1178 18.472C89.1178 9.112 94.3378 5.944 99.7018 5.944ZM116.995 31H120.415V6.844L129.487 18.796L138.595 6.844V31H141.979V5.908H138.523L129.487 17.788L120.451 5.908H116.995V31ZM145.577 31H163.649V30.388H148.997V18.22H160.409V17.644H148.997V6.484H163.649V5.908H145.577V31Z" fill="#A3784A"/>
</g>
<defs>
<clipPath id="clip0_0_180">
<rect width="166" height="36" fill="white"/>
</clipPath>
</defs>
</svg>
