<svg width="36" height="36" viewBox="0 0 36 36" fill="none" xmlns="http://www.w3.org/2000/svg">
<path d="M7 8.5H8.93845C9.85618 8.5 10.6561 9.12459 10.8787 10.0149L13.1213 18.9851C13.3439 19.8754 14.1438 20.5 15.0616 20.5H21.9646C22.8702 20.5 23.6627 19.8916 23.8967 19.0168L25.5706 12.7584C25.7404 12.1234 25.2618 11.5 24.6045 11.5H11.5435" stroke="#777777" stroke-width="1.5"/>
<path d="M14.5 25.9C13.7286 25.9 13.1 25.2714 13.1 24.5C13.1 23.7286 13.7286 23.1 14.5 23.1C15.2714 23.1 15.9 23.7286 15.9 24.5C15.9 25.2714 15.2714 25.9 14.5 25.9Z" stroke="#777777" stroke-width="1.2"/>
<path d="M22.5 25.9C21.7286 25.9 21.1 25.2714 21.1 24.5C21.1 23.7286 21.7286 23.1 22.5 23.1C23.2714 23.1 23.9 23.7286 23.9 24.5C23.9 25.2714 23.2714 25.9 22.5 25.9Z" stroke="#777777" stroke-width="1.2"/>
</svg>
