<svg width="36" height="36" viewBox="0 0 36 36" fill="none" xmlns="http://www.w3.org/2000/svg">
<path d="M21.25 12C21.25 12.8036 20.8732 13.9033 20.2206 14.8062C19.5598 15.7204 18.7561 16.25 18 16.25C17.2439 16.25 16.4402 15.7204 15.7794 14.8062C15.1268 13.9033 14.75 12.8036 14.75 12C14.75 10.9385 15.1252 10.1409 15.6881 9.60631C16.2569 9.06609 17.0649 8.75 18 8.75C18.9351 8.75 19.7431 9.06609 20.3119 9.60631C20.8748 10.1409 21.25 10.9385 21.25 12Z" stroke="#777777" stroke-width="1.5"/>
<path d="M10 26C10 22 12 19 18 19C24 19 26 22 26 26" stroke="#777777" stroke-width="1.5"/>
</svg>
