<svg width="202" height="36" viewBox="0 0 202 36" fill="none" xmlns="http://www.w3.org/2000/svg">
<path d="M181.545 30.6384C180.033 30.6384 178.519 30.6384 176.826 30.6384C177.032 30.4419 177.109 30.3073 177.22 30.2716C177.685 30.1192 177.864 29.7762 177.9 29.3284C177.92 29.0724 177.94 28.8152 177.94 28.558C177.944 21.394 177.944 14.23 177.945 7.06718C177.945 6.95644 177.945 6.84451 177.945 6.73376C177.911 6.72662 177.877 6.71827 177.843 6.71113C177.759 6.89928 177.67 7.08385 177.595 7.27558C174.617 14.9802 171.636 22.6825 168.674 30.393C168.509 30.8241 168.305 31.0075 167.814 30.8622C164.727 22.7706 161.631 14.6527 158.535 6.53489C158.486 6.53727 158.438 6.54085 158.389 6.54323C158.37 6.75996 158.335 6.97788 158.335 7.19461C158.332 14.3384 158.329 21.4821 158.337 28.6271C158.338 29.3344 158.292 30.1013 159.227 30.3466C159.254 30.3538 159.278 30.4061 159.288 30.4419C159.299 30.4776 159.291 30.5193 159.291 30.6169C158.498 30.6169 157.703 30.6169 156.782 30.6169C156.929 30.4609 157.008 30.3049 157.127 30.2644C157.599 30.1061 157.753 29.7464 157.792 29.3082C157.818 29.0129 157.826 28.7152 157.827 28.4187C157.83 21.413 157.828 14.4074 157.828 7.40181C157.828 7.14459 157.824 6.88738 157.808 6.63016C157.776 6.12763 157.643 5.68703 157.075 5.54413C156.94 5.5096 156.802 5.48815 156.665 5.45957C156.736 5.36788 156.809 5.27619 156.881 5.1845C158.036 5.1845 159.193 5.13686 160.341 5.2226C160.585 5.24046 160.881 5.71084 161.004 6.02998C162.387 9.60483 163.74 13.1916 165.104 16.7748C166.405 20.1913 167.709 23.6065 169.011 27.0218C169.065 27.1612 169.129 27.2957 169.229 27.5279C169.857 25.9144 170.452 24.3901 171.042 22.8635C173.16 17.369 175.275 11.8746 177.394 6.38009C177.871 5.14282 177.872 5.14282 179.18 5.14282C179.968 5.14282 180.758 5.14282 181.738 5.14282C181.525 5.36193 181.45 5.50602 181.341 5.53817C180.786 5.7025 180.628 6.12525 180.596 6.62778C180.572 6.98264 180.571 7.33989 180.571 7.69594C180.57 14.5039 180.57 21.3106 180.571 28.1186C180.571 28.4746 180.572 28.8319 180.596 29.1867C180.629 29.6893 180.782 30.1156 181.339 30.2775C181.443 30.3073 181.521 30.4264 181.61 30.5038C181.589 30.5502 181.566 30.5943 181.545 30.6384Z" fill="#A3784A"/>
<path d="M126.062 5.31666C125.957 5.39883 125.863 5.5203 125.744 5.55602C125.244 5.70487 125.07 6.07165 125.039 6.54203C125.016 6.87784 124.992 7.21365 124.992 7.54946C124.99 14.4562 124.99 21.3618 124.991 28.2686C124.991 28.5056 124.996 28.7437 125.008 28.9807C125.04 29.5797 125.144 30.1322 125.851 30.3156C125.93 30.3359 125.978 30.4693 126.101 30.6288C124.478 30.6288 122.952 30.6288 121.312 30.6288C121.437 30.4716 121.493 30.3287 121.582 30.3025C122.263 30.1037 122.348 29.5654 122.35 28.9879C122.359 27.2266 122.359 25.4654 122.362 23.7042C122.363 21.8644 122.362 20.0245 122.362 18.1371C118.327 18.1371 114.312 18.1371 110.254 18.1371C110.242 18.2669 110.215 18.4169 110.214 18.5682C110.213 21.8929 110.213 25.2177 110.215 28.5413C110.215 28.7985 110.225 29.0569 110.252 29.3118C110.3 29.75 110.46 30.1108 110.935 30.2561C111.057 30.2942 111.156 30.4109 111.213 30.6205C109.693 30.6205 108.172 30.6205 106.539 30.6205C106.661 30.4692 106.717 30.3252 106.807 30.3002C107.397 30.1322 107.532 29.6785 107.562 29.157C107.581 28.8212 107.586 28.4841 107.586 28.1483C107.587 21.3213 107.587 14.4943 107.586 7.66616C107.586 7.3494 107.584 7.03264 107.567 6.71707C107.537 6.17763 107.419 5.69296 106.797 5.52387C106.714 5.50124 106.662 5.37383 106.521 5.20593C108.154 5.20593 109.676 5.20593 111.347 5.20593C111.173 5.37264 111.094 5.51316 110.983 5.54531C110.426 5.70726 110.269 6.12762 110.238 6.63372C110.218 6.96953 110.214 7.30653 110.214 7.64235C110.213 10.7492 110.213 13.8561 110.213 16.9629C110.213 17.157 110.213 17.3511 110.213 17.581C114.271 17.581 118.284 17.581 122.343 17.581C122.35 17.4309 122.361 17.2987 122.361 17.1654C122.361 13.8608 122.362 10.5563 122.356 7.25056C122.355 6.52059 122.437 5.73703 121.47 5.47386C121.425 5.46195 121.417 5.31071 121.381 5.18091C122.944 5.18091 124.461 5.18091 125.978 5.18091C126.008 5.22497 126.036 5.27141 126.062 5.31666Z" fill="#A3784A"/>
<path d="M27.7687 30.6441C26.2362 30.6441 24.7226 30.6441 23.0376 30.6441C23.2305 30.4512 23.3055 30.3118 23.4139 30.2785C23.9152 30.1225 24.0724 29.7414 24.1058 29.2806C24.132 28.9257 24.1415 28.5696 24.1415 28.2136C24.1439 21.3473 24.1427 14.4822 24.1427 7.61591C24.1427 7.3587 24.1403 7.10147 24.1308 6.84425C24.1081 6.24526 24.0165 5.69035 23.3067 5.5022C23.2424 5.48553 23.2055 5.36406 23.0936 5.20211C23.3353 5.1783 23.4961 5.14732 23.6556 5.14732C27.6818 5.14732 31.7104 5.09017 35.7342 5.18425C37.2822 5.22116 38.8565 5.47004 40.3558 5.86301C42.4421 6.4096 43.7044 7.87671 44.164 9.99875C44.526 11.6683 44.551 13.3462 44.1211 14.9966C43.3602 17.9118 41.2632 19.3253 38.4373 19.8707C38.2647 19.904 38.092 19.9398 37.8657 19.9838C37.9443 20.1589 37.9991 20.2958 38.067 20.4268C39.4769 23.1026 40.8857 25.7795 42.3039 28.4518C42.7505 29.2949 43.1899 30.1546 44.2664 30.3654C44.32 30.3761 44.3557 30.4809 44.4963 30.6762C42.8351 30.6762 41.2929 30.6881 39.6829 30.5393C40.4796 30.1213 40.2557 29.6152 39.9949 29.1186C38.4778 26.2309 36.9583 23.3443 35.4246 20.4649C35.3483 20.322 35.1364 20.1601 34.9875 20.1601C32.2736 20.1422 29.5597 20.147 26.8066 20.147C26.7899 20.3244 26.7685 20.4554 26.7685 20.5864C26.7673 23.2776 26.7685 25.9677 26.7708 28.659C26.7708 29.3913 26.7911 30.1153 27.7021 30.3535C27.7306 30.3606 27.7545 30.4107 27.7652 30.4464C27.7771 30.4785 27.7687 30.519 27.7687 30.6441ZM26.797 19.6968C26.8756 19.7218 26.9114 19.7433 26.9483 19.7433C28.8119 19.7468 30.6767 19.7647 32.5404 19.7468C33.8872 19.7337 35.24 19.7444 36.5785 19.6194C39.2018 19.3741 40.8511 17.957 41.4668 15.4099C41.961 13.364 41.9348 11.292 41.4394 9.23901C40.9607 7.25152 39.6603 6.11785 37.68 5.75822C36.9035 5.6177 36.1069 5.53196 35.3174 5.52363C32.6202 5.49386 29.9229 5.50934 27.2269 5.50696C27.0935 5.50696 26.9602 5.50696 26.7982 5.50696C26.797 10.2667 26.797 14.9669 26.797 19.6968Z" fill="#A3784A"/>
<path d="M0 30.3584C0.136945 30.3322 0.276266 30.3131 0.41202 30.2786C0.978852 30.1321 1.10747 29.6855 1.14081 29.1878C1.16344 28.8532 1.16701 28.5162 1.16701 28.1792C1.1682 21.3343 1.1682 14.4895 1.16701 7.6446C1.16701 7.36713 1.16582 7.09086 1.15391 6.8134C1.1289 6.23704 1.04197 5.69998 0.359631 5.51302C0.283418 5.49277 0.239357 5.35464 0.120274 5.18793C0.400118 5.17006 0.585882 5.14625 0.770459 5.14625C3.86422 5.14506 6.95798 5.12838 10.0517 5.15577C11.0199 5.16411 11.9975 5.22365 12.9502 5.38322C15.0365 5.73332 16.1178 6.93605 16.2666 9.03547C16.3167 9.73925 16.2738 10.4609 16.1714 11.1599C15.9582 12.6246 15.1294 13.6475 13.7588 14.2251C13.5825 14.2989 13.4027 14.3668 13.1503 14.4668C13.9672 14.5859 14.7102 14.6431 15.4295 14.8062C18.3482 15.4671 20.1523 17.2557 20.7644 20.1923C21.1288 21.9404 21.124 23.6909 20.6596 25.4236C19.9046 28.2411 17.5063 30.1869 14.3316 30.5537C13.6838 30.6287 13.0276 30.668 12.375 30.6704C8.54773 30.6811 4.72042 30.6751 0.893118 30.6751C0.677579 30.6751 0.460848 30.6751 0.245309 30.6751C0.163143 30.5703 0.080976 30.4644 0 30.3584ZM3.81302 30.3167C4.05118 30.3167 4.22623 30.3167 4.40247 30.3167C7.07825 30.3167 9.75404 30.3191 12.4298 30.3155C14.8567 30.3119 16.6918 29.0937 17.6063 26.855C18.5125 24.6388 18.5113 22.3358 18.1184 20.0292C17.6039 17.0021 16.0106 14.7717 11.9487 14.9039C9.45394 14.9848 6.95441 14.9193 4.45606 14.9193C4.24528 14.9193 4.0357 14.9193 3.81183 14.9193C3.81302 20.0839 3.81302 25.1604 3.81302 30.3167ZM3.81659 14.5264C4.83117 14.5264 5.78145 14.5407 6.73054 14.5228C8.17501 14.4966 9.62662 14.5252 11.0616 14.387C12.6275 14.2358 13.8219 13.4296 14.172 11.8184C14.3744 10.8872 14.4209 9.90001 14.3792 8.94377C14.2899 6.86817 13.2432 5.73808 11.1735 5.62972C8.76327 5.50349 6.34352 5.54874 3.92853 5.52254C3.89756 5.52254 3.86541 5.56183 3.81659 5.59399C3.81659 8.54247 3.81659 11.5005 3.81659 14.5264Z" fill="#A3784A"/>
<path d="M141.401 31C138.896 30.8904 136.498 30.4415 134.299 29.2197C131.595 27.7169 129.867 25.4162 129.053 22.4689C128.171 19.2704 128.185 16.0551 129.246 12.8876C130.636 8.73873 133.621 6.35232 137.811 5.41871C140.872 4.73637 143.927 4.86141 146.88 5.99031C151.078 7.59435 153.38 10.756 154.127 15.0894C154.591 17.7759 154.47 20.4481 153.566 23.0524C152.12 27.2251 149.109 29.6139 144.87 30.5392C143.735 30.7857 142.558 30.8511 141.401 31ZM151.821 19.1763C151.812 17.0435 151.512 14.9536 150.82 12.9364C149.412 8.83281 146.866 5.95458 142.3 5.46396C137.677 4.96739 132.866 7.27997 131.498 12.7101C130.492 16.703 130.93 20.6267 132.542 24.3731C134.173 28.1611 137.047 30.3951 141.296 30.4975C144.629 30.5772 147.488 29.4555 149.581 26.7642C151.312 24.535 151.809 21.9212 151.821 19.1763Z" fill="#A3784A"/>
<path d="M184.299 30.6385C184.377 30.4718 184.395 30.3574 184.44 30.3455C185.301 30.1157 185.318 29.4262 185.32 28.7403C185.328 26.5242 185.327 24.308 185.328 22.0919C185.33 17.3239 185.328 12.5546 185.327 7.78655C185.327 7.4305 185.326 7.07444 185.307 6.71839C185.278 6.18013 185.162 5.69308 184.539 5.5228C184.457 5.50017 184.402 5.37395 184.266 5.21676C184.503 5.18342 184.646 5.14768 184.788 5.14649C189.746 5.14411 194.705 5.14888 199.663 5.13697C200.209 5.13578 200.459 5.30012 200.448 5.886C200.421 7.3662 200.439 8.84759 200.439 10.3254C200.03 10.4897 199.873 10.3837 199.812 9.98363C199.724 9.39894 199.591 8.819 199.442 8.24621C199.03 6.66003 197.969 5.70975 196.358 5.65617C193.588 5.56447 190.813 5.63116 187.996 5.63116C187.996 9.48467 187.996 13.3882 187.996 17.3417C188.152 17.3524 188.323 17.3739 188.494 17.3739C190.219 17.3763 191.945 17.3751 193.67 17.3751C193.75 17.3751 193.828 17.3739 193.908 17.3727C196.092 17.337 196.65 16.8035 196.856 14.6183C196.879 14.3659 196.621 13.911 197.145 13.8967C197.221 13.8943 197.382 14.3885 197.384 14.654C197.404 16.632 197.395 18.6111 197.395 20.5891C197.395 20.7082 197.426 20.838 197.387 20.9428C197.329 21.0976 197.222 21.2333 197.137 21.3774C197.044 21.2417 196.895 21.1155 196.867 20.9678C196.772 20.4438 196.753 19.9056 196.64 19.3864C196.461 18.5623 195.914 18.0753 195.08 17.9741C194.413 17.8931 193.738 17.8609 193.065 17.855C191.384 17.8395 189.701 17.8502 187.984 17.8502C187.984 22.0002 187.984 26.1038 187.984 30.2026C188.029 30.23 188.062 30.2669 188.096 30.2669C191.09 30.2503 194.084 30.2848 197.077 30.1943C199.057 30.1348 200.058 29.2202 200.546 27.2994C200.667 26.8219 200.736 26.3301 200.834 25.8466C200.911 25.4632 200.914 25.4631 201.438 25.512C201.438 27.0839 201.449 28.6617 201.42 30.2384C201.418 30.3824 201.179 30.5527 201.016 30.654C200.914 30.7171 200.746 30.6754 200.607 30.6754C195.371 30.6754 190.133 30.6766 184.897 30.6742C184.731 30.6742 184.559 30.6551 184.299 30.6385Z" fill="#A3784A"/>
<path d="M52.7983 5.15707C53.7867 5.15707 54.775 5.15231 55.7622 5.15946C56.3029 5.16303 56.4851 5.54527 56.6327 5.98469C57.864 9.656 59.1001 13.3261 60.3386 16.9962C61.6449 20.8712 62.9536 24.7473 64.2647 28.6211C64.3659 28.92 64.4826 29.2141 64.6053 29.5058C64.8018 29.9703 65.0971 30.3132 65.6556 30.3382C65.7568 30.343 65.8557 30.4347 65.9176 30.6181C64.1456 30.6181 62.3737 30.6181 60.6006 30.6181C60.5827 30.58 60.5648 30.5419 60.5481 30.5038C60.6553 30.4442 60.7566 30.3501 60.8709 30.3299C61.4437 30.2251 61.6973 29.856 61.6485 29.3165C61.6032 28.8295 61.5175 28.3341 61.3651 27.8708C60.6708 25.7488 59.9373 23.6399 59.2418 21.5178C59.1215 21.151 58.9429 21.0474 58.5654 21.0498C55.867 21.0665 53.1686 21.0641 50.4714 21.0522C50.1296 21.051 49.9522 21.1272 49.8391 21.4868C49.1091 23.7839 48.3494 26.0715 47.6039 28.3638C47.5122 28.6449 47.4229 28.9319 47.38 29.2236C47.3026 29.7476 47.224 30.2954 48.0076 30.3597C48.0338 30.3621 48.0647 30.4133 48.079 30.4478C48.0933 30.4823 48.0862 30.524 48.0921 30.6205C47.1823 30.6205 46.2749 30.6205 45.2354 30.6205C45.3866 30.4823 45.4616 30.3501 45.5473 30.3442C46.157 30.3013 46.475 29.9012 46.6548 29.3999C47.205 27.8768 47.7397 26.3478 48.2493 24.8104C50.1523 19.0718 52.0445 13.3297 53.9379 7.58753C54.344 6.35741 54.2118 6.06924 53.0352 5.52146C52.9269 5.47025 52.8411 5.36904 52.7459 5.29044C52.7602 5.24519 52.7792 5.20113 52.7983 5.15707ZM58.8822 20.558C57.4222 16.2055 55.9754 11.8971 54.4797 7.43868C53.0126 11.9138 51.6015 16.2174 50.1773 20.558C53.1115 20.558 55.9599 20.558 58.8822 20.558Z" fill="#A3784A"/>
<path d="M96.1389 30.6363C94.3717 30.6363 92.6033 30.6363 90.8361 30.6363C90.8182 30.5922 90.8016 30.5482 90.7837 30.5041C90.8909 30.4434 90.9921 30.3505 91.1064 30.3291C91.6792 30.2243 91.9341 29.8551 91.884 29.3169C91.8388 28.8298 91.753 28.3344 91.6006 27.8712C90.9064 25.7492 90.1728 23.6402 89.4774 21.5182C89.3571 21.1514 89.1785 21.0478 88.801 21.0502C86.1026 21.068 83.4042 21.0645 80.707 21.0526C80.3652 21.0514 80.1878 21.1276 80.0734 21.4872C79.3435 23.7843 78.5837 26.0719 77.8383 28.3642C77.7466 28.6453 77.6573 28.9322 77.6144 29.224C77.537 29.7468 77.4572 30.2957 78.2408 30.36C78.267 30.3624 78.2991 30.4136 78.3122 30.447C78.3253 30.4815 78.3194 30.5232 78.3253 30.6196C77.4155 30.6196 76.5081 30.6196 75.4697 30.6196C75.6198 30.4815 75.6948 30.3493 75.7793 30.3434C76.3605 30.3041 76.6617 29.9266 76.8666 29.455C77.0797 28.9668 77.2762 28.469 77.4429 27.9629C79.6888 21.1728 81.9299 14.3804 84.1699 7.58792C84.5759 6.3578 84.4438 6.06842 83.2684 5.52183C83.1601 5.47182 83.0755 5.3706 82.8647 5.19913C84.0889 5.19913 85.1642 5.15388 86.23 5.23486C86.4598 5.25272 86.7492 5.69213 86.8528 5.99103C88.1103 9.654 89.3381 13.3265 90.5753 16.9966C91.8817 20.8715 93.1904 24.7465 94.5015 28.6214C94.6027 28.9203 94.7194 29.2145 94.842 29.5062C95.0385 29.9706 95.3339 30.3136 95.8912 30.3386C95.9936 30.3434 96.0912 30.4351 96.1913 30.4863C96.1734 30.5363 96.1555 30.5863 96.1389 30.6363ZM89.1201 20.5667C87.6554 16.2023 86.211 11.8999 84.7141 7.44025C83.2446 11.9237 81.8347 16.2238 80.4105 20.5667C83.3411 20.5667 86.1729 20.5667 89.1201 20.5667Z" fill="#A3784A"/>
<path d="M77.6821 5.17505C78.5633 5.17505 79.3874 5.17505 80.3448 5.17505C80.2031 5.32867 80.1317 5.47513 80.0555 5.47751C79.2838 5.5049 79.017 6.07173 78.8134 6.65762C78.274 8.20569 77.7619 9.76329 77.2475 11.3197C75.1481 17.6775 73.0534 24.0365 70.9433 30.3919C70.8778 30.5908 70.6646 30.7409 70.5193 30.9123C70.3788 30.7313 70.1752 30.5706 70.1073 30.3657C67.6018 22.81 65.1106 15.2506 62.6146 7.69244C62.4967 7.33638 62.367 6.9839 62.2264 6.63618C62.0169 6.12055 61.7001 5.71448 61.1214 5.56444C60.9904 5.53109 60.8856 5.39773 60.8296 5.19053C62.3705 5.19053 63.9103 5.19053 65.4702 5.19053C65.4548 5.29413 65.4559 5.39534 65.4357 5.4001C64.57 5.60135 64.7938 6.19797 64.9689 6.7386C65.9942 9.89429 67.0326 13.0464 68.0686 16.1985C69.1844 19.5947 70.3026 22.991 71.4208 26.386C71.4577 26.4968 71.5065 26.6039 71.5958 26.829C71.7352 26.4241 71.8435 26.1216 71.9448 25.8168C73.9596 19.7019 75.9745 13.5858 77.9882 7.46975C78.0811 7.18872 78.168 6.90412 78.2383 6.61714C78.3621 6.11103 78.5181 5.58349 77.7595 5.42035C77.7321 5.4144 77.725 5.31914 77.6821 5.17505Z" fill="#A3784A"/>
</svg>
